<svg xmlns="http://www.w3.org/2000/svg" width="39.055" height="31.244" viewBox="0 0 39.055 31.244">
  <g id="Group_2089" data-name="Group 2089" transform="translate(-1227.525 -2483.496)">
    <path id="Icon_material-web" data-name="Icon material-web" d="M38.149,6H6.905A3.9,3.9,0,0,0,3.02,9.905L3,33.338a3.917,3.917,0,0,0,3.905,3.905H38.149a3.917,3.917,0,0,0,3.905-3.905V9.905A3.917,3.917,0,0,0,38.149,6ZM28.386,33.338H6.905V25.527h21.48Zm0-9.764H6.905V15.764h21.48Zm9.764,9.764H30.338V15.764h7.811Z" transform="translate(1224.525 2477.497)" fill="#0b2338"/>
    <circle id="Ellipse_8" data-name="Ellipse 8" cx="2" cy="2" r="2" transform="translate(1232 2487)" fill="#fff"/>
    <circle id="Ellipse_9" data-name="Ellipse 9" cx="2" cy="2" r="2" transform="translate(1237 2487)" fill="#fff"/>
    <circle id="Ellipse_10" data-name="Ellipse 10" cx="2" cy="2" r="2" transform="translate(1242 2487)" fill="#fff"/>
  </g>
</svg>
