<svg id="login" xmlns="http://www.w3.org/2000/svg" width="33" height="38" viewBox="0 0 33 38">
  <g id="Group_185" data-name="Group 185" transform="translate(0 0)">
    <rect id="Rectangle_52" data-name="Rectangle 52" width="33" height="38" transform="translate(0 0)" fill="none"/>
    <rect id="Rectangle_53" data-name="Rectangle 53" width="33" height="38" transform="translate(0 0)" fill="none"/>
  </g>
  <g id="Group_186" data-name="Group 186" transform="translate(30.381 6.137) rotate(90)">
    <path id="Path_9" data-name="Path 9" d="M10.871,7.35h0a1.756,1.756,0,0,0,0,2.189l2.488,2.971H1.31A1.458,1.458,0,0,0,0,14.074H0a1.458,1.458,0,0,0,1.31,1.564H13.359l-2.488,2.971a1.756,1.756,0,0,0,0,2.189h0a1.147,1.147,0,0,0,1.834,0l4.7-5.614a1.778,1.778,0,0,0,0-2.2L12.7,7.35A1.147,1.147,0,0,0,10.871,7.35Zm12.7,17.671H14.407a1.458,1.458,0,0,0-1.31,1.564h0a1.458,1.458,0,0,0,1.31,1.564h9.168a2.916,2.916,0,0,0,2.619-3.128V3.128A2.916,2.916,0,0,0,23.575,0H14.407A1.458,1.458,0,0,0,13.1,1.564h0a1.458,1.458,0,0,0,1.31,1.564h9.168Z" transform="translate(0 0)" fill="#005b94"/>
  </g>
</svg>
